<svg xmlns="http://www.w3.org/2000/svg" viewBox="0 0 26 26">
  <path d="M21.125 0L4.875 0C2.183594 0 0 2.183594 0 4.875L0 21.125C0 23.816406 2.183594 26 4.875 26L21.125 26C23.816406 26 26 23.816406 26 21.125L26 4.875C26 2.183594 23.816406 0 21.125 0 Z M 18.78125 17.394531L17.390625 18.78125C17.136719 19.035156 16.722656 19.035156 16.46875 18.78125L13 15.3125L9.53125 18.78125C9.277344 19.035156 8.863281 19.035156 8.609375 18.777344L7.21875 17.394531C6.96875 17.136719 6.96875 16.726563 7.21875 16.46875L10.6875 13L7.222656 9.535156C6.96875 9.277344 6.96875 8.863281 7.222656 8.609375L8.609375 7.222656C8.863281 6.964844 9.28125 6.964844 9.535156 7.222656L13 10.6875L16.46875 7.222656C16.722656 6.964844 17.140625 6.964844 17.390625 7.222656L18.78125 8.605469C19.035156 8.863281 19.035156 9.277344 18.78125 9.535156L15.3125 13L18.78125 16.46875C19.03125 16.726563 19.03125 17.136719 18.78125 17.394531Z" fill="#06897C" />
</svg>