<svg xmlns="http://www.w3.org/2000/svg" viewBox="0 0 24 24">
  <path d="M12.0625 0C9.773438 0 9.8125 0.21875 9.8125 0.21875C9.539063 1.539063 9.253906 2.433594 9.0625 2.96875C7.898438 3.351563 6.824219 3.949219 5.90625 4.71875C5.351563 4.609375 4.457031 4.40625 3.21875 3.96875C3.21875 3.96875 3.050781 3.824219 1.875 5.8125C0.695313 7.800781 0.875 7.90625 0.875 7.90625C1.789063 8.765625 2.386719 9.425781 2.75 9.875C2.59375 10.558594 2.5 11.269531 2.5 12C2.5 12.664063 2.558594 13.3125 2.6875 13.9375C2.316406 14.378906 1.707031 15.042969 0.78125 15.875C0.78125 15.875 0.613281 15.957031 1.75 17.96875C2.886719 19.980469 3.03125 19.84375 3.03125 19.84375C4.28125 19.429688 5.191406 19.253906 5.75 19.15625C6.664063 19.960938 7.730469 20.5625 8.90625 20.96875C9.101563 21.496094 9.40625 22.414063 9.6875 23.78125C9.6875 23.78125 9.652344 24 11.9375 24C14.222656 24 14.21875 23.78125 14.21875 23.78125C14.492188 22.464844 14.742188 21.566406 14.9375 21.03125C16.101563 20.648438 17.175781 20.050781 18.09375 19.28125C18.648438 19.390625 19.542969 19.59375 20.78125 20.03125C20.78125 20.03125 20.945313 20.175781 22.125 18.1875C23.300781 16.199219 23.125 16.09375 23.125 16.09375C22.210938 15.234375 21.613281 14.574219 21.25 14.125C21.40625 13.4375 21.5 12.730469 21.5 12C21.5 11.335938 21.441406 10.6875 21.3125 10.0625C21.683594 9.621094 22.292969 8.957031 23.21875 8.125C23.21875 8.125 23.386719 8.042969 22.25 6.03125C21.113281 4.019531 20.96875 4.15625 20.96875 4.15625C19.71875 4.570313 18.808594 4.746094 18.25 4.84375C17.335938 4.042969 16.269531 3.4375 15.09375 3.03125C14.902344 2.503906 14.59375 1.585938 14.3125 0.21875C14.3125 0.21875 14.347656 0 12.0625 0 Z M 12 4C16.417969 4 20 7.582031 20 12C20 16.417969 16.417969 20 12 20C7.582031 20 4 16.417969 4 12C4 7.582031 7.582031 4 12 4 Z M 12 5C8.132813 5 5 8.132813 5 12C5 15.867188 8.132813 19 12 19C15.867188 19 19 15.867188 19 12C19 8.132813 15.867188 5 12 5 Z M 12 8C14.210938 8 16 9.789063 16 12C16 14.210938 14.210938 16 12 16C9.789063 16 8 14.210938 8 12C8 9.789063 9.789063 8 12 8Z" fill="#57CEA0" />
</svg>