<svg xmlns="http://www.w3.org/2000/svg" viewBox="0 0 100 100"><path fill="#52bfa1" d="M50 15A35 35 0 1 0 50 85A35 35 0 1 0 50 15Z"/><path fill="#f9e65c" d="M66.5 51.115L66.5 59.5 50 42.885 33.5 59.5 33.5 51.115 50 34.5z"/><path fill="#1f212b" d="M86,50c0,19.851-16.149,36-36,36S14,69.851,14,50s16.149-36,36-36S86,30.149,86,50z M16,50 c0,18.748,15.252,34,34,34s34-15.252,34-34S68.748,16,50,16S16,31.252,16,50z"/><path fill="#1f212b" d="M65.5 24.227c-.087 0-.175-.022-.255-.07-.638-.377-1.299-.735-1.967-1.065-.247-.123-.349-.422-.227-.67.123-.249.425-.347.67-.227.689.341 1.374.711 2.033 1.102.237.141.316.447.176.685C65.837 24.139 65.671 24.227 65.5 24.227zM68.5 26.25c-.106 0-.213-.034-.304-.103-.322-.247-.65-.486-.983-.72-.226-.159-.281-.47-.122-.696.158-.228.47-.28.696-.123.345.241.683.49 1.017.745.22.167.261.481.094.701C68.799 26.182 68.65 26.25 68.5 26.25z"/><path fill="#1f212b" d="M50,81c-17.094,0-31-13.907-31-31s13.906-31,31-31c3.668,0,7.259,0.635,10.672,1.886 c0.26,0.095,0.393,0.382,0.298,0.642s-0.383,0.393-0.642,0.297C57.025,20.614,53.551,20,50,20c-16.542,0-30,13.458-30,30 s13.458,30,30,30s30-13.458,30-30c0-8.439-3.585-16.535-9.836-22.213c-0.205-0.186-0.22-0.502-0.034-0.707 c0.187-0.204,0.503-0.219,0.706-0.034C77.296,32.914,81,41.28,81,50C81,67.093,67.094,81,50,81z"/><path fill="#1f212b" d="M66.5,60c-0.131,0-0.259-0.051-0.354-0.147L50,43.595L33.854,59.853 c-0.143,0.144-0.358,0.186-0.545,0.109C33.122,59.885,33,59.702,33,59.5v-8.385c0-0.132,0.052-0.259,0.146-0.353l16.5-16.615 c0.188-0.189,0.521-0.189,0.709,0l16.5,16.615C66.948,50.856,67,50.983,67,51.115V59.5c0,0.202-0.122,0.385-0.31,0.462 C66.629,59.987,66.564,60,66.5,60z M50,42.385c0.133,0,0.261,0.053,0.354,0.147L66,58.287v-6.966L50,35.21L34,51.321v6.966 l15.646-15.755C49.739,42.438,49.867,42.385,50,42.385z"/></svg>